<svg width="992" height="300" viewBox="0 0 992 300" xmlns="http://www.w3.org/2000/svg">
<text x="95" y="273" text-anchor="end" class="axes-tick" font-family="Sans serif" font-size="0.8em">0</text>
<line x1="100.5" y1="241.5" x2="992.5" y2="241.5" stroke="#ccc" />
<text x="95" y="246" text-anchor="end" class="axes-tick" font-family="Sans serif" font-size="0.8em">12</text>
<line x1="100.5" y1="214.5" x2="992.5" y2="214.5" stroke="#ccc" />
<text x="95" y="219" text-anchor="end" class="axes-tick" font-family="Sans serif" font-size="0.8em">24</text>
<line x1="100.5" y1="187.5" x2="992.5" y2="187.5" stroke="#ccc" />
<text x="95" y="192" text-anchor="end" class="axes-tick" font-family="Sans serif" font-size="0.8em">36</text>
<line x1="100.5" y1="160.5" x2="992.5" y2="160.5" stroke="#ccc" />
<text x="95" y="165" text-anchor="end" class="axes-tick" font-family="Sans serif" font-size="0.8em">48</text>
<line x1="100.5" y1="133.5" x2="992.5" y2="133.5" stroke="#ccc" />
<text x="95" y="138" text-anchor="end" class="axes-tick" font-family="Sans serif" font-size="0.8em">60</text>
<line x1="100.5" y1="106.5" x2="992.5" y2="106.5" stroke="#ccc" />
<text x="95" y="111" text-anchor="end" class="axes-tick" font-family="Sans serif" font-size="0.8em">72</text>
<line x1="100.5" y1="79.5" x2="992.5" y2="79.5" stroke="#ccc" />
<text x="95" y="84" text-anchor="end" class="axes-tick" font-family="Sans serif" font-size="0.8em">84</text>
<line x1="100.5" y1="52.5" x2="992.5" y2="52.5" stroke="#ccc" />
<text x="95" y="57" text-anchor="end" class="axes-tick" font-family="Sans serif" font-size="0.8em">96</text>
<line x1="100.5" y1="25.5" x2="992.5" y2="25.5" stroke="#ccc" />
<text x="95" y="30" text-anchor="end" class="axes-tick" font-family="Sans serif" font-size="0.8em">108</text>
<text x="100" y="283" class="axes-tick" font-family="Sans serif" font-size="0.8em">May</text>
<text x="100" y="300" class="axes-tick" font-family="Sans serif" font-size="0.8em">2017</text>
<text x="174" y="283" class="axes-tick" font-family="Sans serif" font-size="0.8em">Jul</text>
<text x="248" y="283" class="axes-tick" font-family="Sans serif" font-size="0.8em">Aug</text>
<text x="322" y="283" class="axes-tick" font-family="Sans serif" font-size="0.8em">Sep</text>
<text x="396" y="283" class="axes-tick" font-family="Sans serif" font-size="0.8em">Oct</text>
<text x="470" y="283" class="axes-tick" font-family="Sans serif" font-size="0.8em">Dec</text>
<text x="544" y="283" class="axes-tick" font-family="Sans serif" font-size="0.8em">Jan</text>
<text x="544" y="300" class="axes-tick" font-family="Sans serif" font-size="0.8em">2018</text>
<text x="618" y="283" class="axes-tick" font-family="Sans serif" font-size="0.8em">Feb</text>
<text x="692" y="283" class="axes-tick" font-family="Sans serif" font-size="0.8em">Mar</text>
<text x="766" y="283" class="axes-tick" font-family="Sans serif" font-size="0.8em">May</text>
<text x="840" y="283" class="axes-tick" font-family="Sans serif" font-size="0.8em">Jun</text>
<text x="914" y="283" class="axes-tick" font-family="Sans serif" font-size="0.8em">Aug</text>
<line x1="100.5" y1="24.5" x2="100.5" y2="268.5" stroke="black" />
<line x1="100.5" y1="268.5" x2="992.5" y2="268.5" stroke="black" />
<text transform="translate(105 29) rotate(90)" class="axes-label" font-family="Sans serif">Devices</text>
<text x="987" y="263" class="axes-label" text-anchor="end" font-family="Sans serif">Days</text>
<polyline points="100.0,261.3454545454546 102.36604774535809,261.3454545454546 104.73209549071618,263.56363636363636 107.09814323607426,261.3454545454546 109.46419098143237,261.3454545454546 111.83023872679045,261.3454545454546 114.19628647214854,263.56363636363636 116.56233421750663,261.3454545454546 118.92838196286472,259.1272727272727 121.29442970822282,259.1272727272727 123.66047745358091,259.1272727272727 126.026525198939,259.1272727272727 128.3925729442971,256.9090909090909 130.75862068965517,259.1272727272727 133.12466843501326,256.9090909090909 135.49071618037135,256.9090909090909 137.85676392572944,256.9090909090909 140.22281167108753,256.9090909090909 142.58885941644564,256.9090909090909 144.9549071618037,256.9090909090909 147.32095490716182,256.9090909090909 149.6870026525199,256.9090909090909 152.053050397878,256.9090909090909 154.41909814323608,256.9090909090909 156.78514588859417,254.6909090909091 159.15119363395226,252.47272727272727 161.51724137931035,248.03636363636363 163.88328912466844,248.03636363636363 166.24933687002653,248.03636363636363 168.61538461538464,248.03636363636363 170.9814323607427,248.03636363636363 173.34748010610082,248.03636363636363 175.71352785145888,248.03636363636363 178.079575596817,248.03636363636363 180.44562334217505,248.03636363636363 182.81167108753317,248.03636363636363 185.17771883289126,248.03636363636363 187.54376657824935,248.03636363636363 189.90981432360743,248.03636363636363 192.27586206896552,248.03636363636363 194.6419098143236,248.03636363636363 197.0079575596817,248.03636363636363 199.37400530503982,248.03636363636363 201.74005305039788,243.6 204.106100795756,243.6 206.47214854111405,243.6 208.83819628647217,243.6 211.20424403183023,243.6 213.57029177718834,239.16363636363636 215.93633952254643,239.16363636363636 218.30238726790452,239.16363636363636 220.6684350132626,236.94545454545454 223.0344827586207,236.94545454545454 225.40053050397879,236.94545454545454 227.76657824933687,234.72727272727272 230.13262599469496,234.72727272727272 232.49867374005305,234.72727272727272 234.86472148541114,234.72727272727272 237.23076923076925,234.72727272727272 239.59681697612734,234.72727272727272 241.96286472148543,234.72727272727272 244.32891246684352,234.72727272727272 246.6949602122016,230.29090909090908 249.0610079575597,228.07272727272726 251.42705570291778,228.07272727272726 253.79310344827587,228.07272727272726 256.159151193634,228.07272727272726 258.52519893899205,228.07272727272726 260.8912466843501,228.07272727272726 263.2572944297082,228.07272727272726 265.62334217506634,228.07272727272726 267.9893899204244,228.07272727272726 270.3554376657825,228.07272727272726 272.72148541114063,228.07272727272726 275.0875331564987,223.63636363636363 277.45358090185675,223.63636363636363 279.81962864721487,223.63636363636363 282.185676392573,223.63636363636363 284.55172413793105,223.63636363636363 286.9177718832891,223.63636363636363 289.2838196286472,221.4181818181818 291.64986737400534,219.2 294.0159151193634,219.2 296.38196286472146,214.76363636363635 298.74801061007963,214.76363636363635 301.1140583554377,214.76363636363635 303.48010610079575,214.76363636363635 305.84615384615387,214.76363636363635 308.212201591512,214.76363636363635 310.57824933687004,214.76363636363635 312.9442970822281,214.76363636363635 315.3103448275862,214.76363636363635 317.67639257294434,214.76363636363635 320.0424403183024,214.76363636363635 322.40848806366046,212.54545454545456 324.7745358090186,212.54545454545456 327.1405835543767,212.54545454545456 329.50663129973475,208.10909090909092 331.87267904509287,208.10909090909092 334.238726790451,208.10909090909092 336.60477453580904,208.10909090909092 338.9708222811671,208.10909090909092 341.3368700265252,208.10909090909092 343.70291777188334,208.10909090909092 346.0689655172414,208.10909090909092 348.43501326259945,208.10909090909092 350.80106100795757,208.10909090909092 353.1671087533157,208.10909090909092 355.53315649867375,208.10909090909092 357.89920424403186,205.89090909090908 360.2652519893899,205.89090909090908 362.63129973474804,205.89090909090908 364.9973474801061,201.45454545454544 367.3633952254642,201.45454545454544 369.7294429708223,201.45454545454544 372.0954907161804,201.45454545454544 374.4615384615385,201.45454545454544 376.82758620689657,201.45454545454544 379.1936339522547,199.23636363636365 381.55968169761275,199.23636363636365 383.92572944297086,199.23636363636365 386.2917771883289,199.23636363636365 388.65782493368704,199.23636363636365 391.0238726790451,199.23636363636365 393.3899204244032,199.23636363636365 395.7559681697613,199.23636363636365 398.1220159151194,199.23636363636365 400.48806366047745,199.23636363636365 402.85411140583557,199.23636363636365 405.2201591511937,199.23636363636365 407.58620689655174,199.23636363636365 409.95225464190986,199.23636363636365 412.3183023872679,197.0181818181818 414.68435013262604,197.0181818181818 417.0503978779841,197.0181818181818 419.4164456233422,197.0181818181818 421.7824933687003,197.0181818181818 424.1485411140584,194.8 426.51458885941645,192.58181818181816 428.88063660477457,192.58181818181816 431.2466843501326,192.58181818181816 433.61273209549074,192.58181818181816 435.97877984084886,192.58181818181816 438.3448275862069,192.58181818181816 440.71087533156503,192.58181818181816 443.0769230769231,192.58181818181816 445.4429708222812,192.58181818181816 447.80901856763927,192.58181818181816 450.1750663129974,190.36363636363637 452.54111405835545,190.36363636363637 454.90716180371356,188.14545454545453 457.2732095490716,188.14545454545453 459.63925729442974,188.14545454545453 462.0053050397878,188.14545454545453 464.3713527851459,185.92727272727274 466.73740053050403,183.7090909090909 469.1034482758621,183.7090909090909 471.4694960212202,183.7090909090909 473.83554376657827,183.7090909090909 476.2015915119364,183.7090909090909 478.56763925729445,181.4909090909091 480.93368700265256,181.4909090909091 483.2997347480106,181.4909090909091 485.66578249336874,181.4909090909091 488.0318302387268,181.4909090909091 490.3978779840849,181.4909090909091 492.763925729443,181.4909090909091 495.1299734748011,181.4909090909091 497.4960212201592,181.4909090909091 499.86206896551727,181.4909090909091 502.2281167108754,181.4909090909091 504.59416445623344,181.4909090909091 506.96021220159156,181.4909090909091 509.3262599469496,181.4909090909091 511.69230769230774,179.27272727272725 514.0583554376658,179.27272727272725 516.424403183024,179.27272727272725 518.7904509283819,174.83636363636361 521.1564986737401,174.83636363636361 523.5225464190981,172.61818181818182 525.8885941644562,172.61818181818182 528.2546419098144,170.39999999999998 530.6206896551724,170.39999999999998 532.9867374005305,170.39999999999998 535.3527851458887,170.39999999999998 537.7188328912467,170.39999999999998 540.0848806366048,168.1818181818182 542.450928381963,163.74545454545455 544.8169761273209,163.74545454545455 547.1830238726791,159.3090909090909 549.5490716180371,157.0909090909091 551.9151193633952,157.0909090909091 554.2811671087534,157.0909090909091 556.6472148541114,157.0909090909091 559.0132625994695,157.0909090909091 561.3793103448277,154.87272727272727 563.7453580901857,154.87272727272727 566.1114058355438,154.87272727272727 568.477453580902,154.87272727272727 570.8435013262599,152.65454545454546 573.2095490716181,152.65454545454546 575.5755968169761,152.65454545454546 577.9416445623342,152.65454545454546 580.3076923076924,150.43636363636364 582.6737400530504,148.21818181818182 585.0397877984085,148.21818181818182 587.4058355437667,146.0 589.7718832891247,146.0 592.1379310344828,146.0 594.503978779841,143.78181818181818 596.8700265251989,139.34545454545454 599.2360742705571,139.34545454545454 601.6021220159151,139.34545454545454 603.9681697612732,139.34545454545454 606.3342175066314,139.34545454545454 608.7002652519894,137.12727272727273 611.0663129973475,134.9090909090909 613.4323607427056,134.9090909090909 615.7984084880637,134.9090909090909 618.1644562334218,134.9090909090909 620.5305039787798,134.9090909090909 622.896551724138,134.9090909090909 625.2625994694961,132.6909090909091 627.6286472148541,132.6909090909091 629.9946949602122,130.47272727272727 632.3607427055704,128.25454545454545 634.7267904509284,126.03636363636363 637.0928381962865,126.03636363636363 639.4588859416446,126.03636363636363 641.8249336870027,126.03636363636363 644.1909814323608,126.03636363636363 646.5570291777188,126.03636363636363 648.923076923077,126.03636363636363 651.2891246684351,123.81818181818181 653.6551724137931,123.81818181818181 656.0212201591512,123.81818181818181 658.3872679045094,123.81818181818181 660.7533156498674,121.6 663.1193633952255,121.6 665.4854111405836,121.6 667.8514588859417,121.6 670.2175066312998,121.6 672.5835543766578,121.6 674.9496021220159,119.38181818181818 677.3156498673741,117.16363636363636 679.6816976127321,117.16363636363636 682.0477453580902,117.16363636363636 684.4137931034484,114.94545454545454 686.7798408488064,114.94545454545454 689.1458885941645,114.94545454545454 691.5119363395225,110.5090909090909 693.8779840848807,108.29090909090908 696.2440318302388,108.29090909090908 698.6100795755968,108.29090909090908 700.9761273209549,108.29090909090908 703.3421750663131,106.07272727272726 705.7082228116711,106.07272727272726 708.0742705570292,106.07272727272726 710.4403183023874,106.07272727272726 712.8063660477454,103.85454545454544 715.1724137931035,103.85454545454544 717.5384615384615,101.63636363636363 719.9045092838197,99.41818181818181 722.2705570291778,99.41818181818181 724.6366047745358,99.41818181818181 727.0026525198939,99.41818181818181 729.3687002652521,99.41818181818181 731.7347480106101,94.98181818181817 734.1007957559682,94.98181818181817 736.4668435013264,94.98181818181817 738.8328912466844,92.76363636363635 741.1989389920425,92.76363636363635 743.5649867374005,92.76363636363635 745.9310344827587,90.54545454545453 748.2970822281168,90.54545454545453 750.6631299734748,90.54545454545453 753.0291777188329,88.32727272727271 755.3952254641911,88.32727272727271 757.7612732095491,88.32727272727271 760.1273209549072,88.32727272727271 762.4933687002653,88.32727272727271 764.8594164456234,86.1090909090909 767.2254641909815,86.1090909090909 769.5915119363395,86.1090909090909 771.9575596816977,83.89090909090908 774.3236074270558,83.89090909090908 776.6896551724138,83.89090909090908 779.0557029177719,83.89090909090908 781.4217506631301,83.89090909090908 783.7877984084881,83.89090909090908 786.1538461538462,83.89090909090908 788.5198938992042,83.89090909090908 790.8859416445624,81.67272727272726 793.2519893899205,81.67272727272726 795.6180371352785,81.67272727272726 797.9840848806367,81.67272727272726 800.3501326259948,81.67272727272726 802.7161803713528,81.67272727272726 805.0822281167109,79.45454545454544 807.4482758620691,79.45454545454544 809.8143236074271,77.23636363636362 812.1803713527852,77.23636363636362 814.5464190981432,77.23636363636362 816.9124668435014,77.23636363636362 819.2785145888595,77.23636363636362 821.6445623342175,77.23636363636362 824.0106100795756,77.23636363636362 826.3766578249338,77.23636363636362 828.7427055702918,77.23636363636362 831.1087533156499,75.0181818181818 833.4748010610081,75.0181818181818 835.8408488063661,72.79999999999998 838.2068965517242,70.58181818181816 840.5729442970822,70.58181818181816 842.9389920424404,68.36363636363635 845.3050397877985,70.58181818181816 847.6710875331565,68.36363636363635 850.0371352785146,68.36363636363635 852.4031830238728,68.36363636363635 854.7692307692308,68.36363636363635 857.1352785145889,68.36363636363635 859.5013262599471,66.14545454545453 861.8673740053051,66.14545454545453 864.2334217506632,66.14545454545453 866.5994694960212,63.92727272727271 868.9655172413794,61.70909090909089 871.3315649867375,59.49090909090907 873.6976127320955,59.49090909090907 876.0636604774536,59.49090909090907 878.4297082228118,59.49090909090907 880.7957559681698,57.27272727272725 883.1618037135279,57.27272727272725 885.527851458886,57.27272727272725 887.8938992042441,55.05454545454546 890.2599469496022,55.05454545454546 892.6259946949602,55.05454545454546 894.9920424403184,55.05454545454546 897.3580901856765,55.05454545454546 899.7241379310345,55.05454545454546 902.0901856763926,52.83636363636364 904.4562334217508,52.83636363636364 906.8222811671088,52.83636363636364 909.1883289124669,52.83636363636364 911.554376657825,52.83636363636364 913.9204244031831,52.83636363636364 916.2864721485412,52.83636363636364 918.6525198938992,52.83636363636364 921.0185676392574,52.83636363636364 923.3846153846155,50.618181818181824 925.7506631299735,50.618181818181824 928.1167108753316,48.400000000000006 930.4827586206898,48.400000000000006 932.8488063660478,48.400000000000006 935.2148541114059,48.400000000000006 937.580901856764,48.400000000000006 939.9469496021221,48.400000000000006 942.3129973474802,48.400000000000006 944.6790450928382,48.400000000000006 947.0450928381963,32.872727272727275 949.4111405835545,32.872727272727275 951.7771883289125,32.872727272727275 954.1432360742706,32.872727272727275 956.5092838196288,30.654545454545456 958.8753315649868,30.654545454545456 961.2413793103449,30.654545454545456 963.6074270557029,30.654545454545456 965.9734748010611,30.654545454545456 968.3395225464192,28.436363636363637 970.7055702917772,28.436363636363637 973.0716180371353,28.436363636363637 975.4376657824935,28.436363636363637 977.8037135278515,28.436363636363637 980.1697612732096,28.436363636363637 982.5358090185678,28.436363636363637 984.9018567639258,28.436363636363637 987.2679045092839,28.436363636363637 989.6339522546419,28.436363636363637 992.0000000000001,28.436363636363637" fill="none" stroke="#009900" />
</svg>